<?xml version="1.0" standalone="no"?>
<!DOCTYPE svg PUBLIC "-//W3C//DTD SVG 20010904//EN"
 "http://www.w3.org/TR/2001/REC-SVG-20010904/DTD/svg10.dtd">
<svg version="1.0" xmlns="http://www.w3.org/2000/svg"
 width="700.000000pt" height="700.000000pt" viewBox="0 0 700.000000 700.000000"
 preserveAspectRatio="xMidYMid meet">
<metadata>
Created by potrace 1.11, written by Peter Selinger 2001-2013
</metadata>
<g transform="translate(0.000000,700.000000) scale(0.100000,-0.100000)"
fill="#000000" stroke="none">
<path d="M1055 4998 l-250 -253 0 -707 0 -707 252 -253 253 -253 447 1 c247 1
454 2 460 3 7 1 56 43 110 94 53 50 109 103 123 117 15 14 45 42 68 64 l40 38
1 -344 1 -345 -88 -84 -87 -85 -374 1 -373 1 -47 50 -47 49 2 73 1 72 -322 0
-322 0 0 -165 0 -166 226 -224 226 -225 660 0 660 0 265 262 264 261 1 993 c0
546 3 995 5 998 3 2 102 103 221 223 l215 218 147 0 147 0 77 -80 78 -80 0
-855 c0 -819 0 -855 18 -860 14 -4 572 -5 599 -1 3 1 6 360 7 799 0 438 0 802
0 808 1 6 59 70 130 141 l128 129 205 -1 205 0 81 -85 82 -85 0 -855 0 -855
323 0 322 1 0 949 0 950 -260 262 -260 263 -426 0 -426 0 -164 -168 -165 -168
-165 168 -164 168 -309 0 -309 0 -172 -175 -171 -174 0 157 c1 86 0 165 -3
175 -3 16 -27 17 -322 17 l-318 0 -3 -139 -3 -140 -145 139 -145 139 -480 1
-480 0 -250 -252z m1202 -318 c15 -14 34 -32 43 -40 8 -8 33 -30 55 -49 22
-19 77 -68 122 -109 l82 -74 -1 -317 0 -316 -197 -202 -198 -203 -264 0 -265
0 -92 94 -92 94 0 478 -1 478 87 90 c47 50 93 93 101 96 8 3 145 6 303 5 l289
0 28 -25z"/>
</g>
</svg>
