<svg width="62" height="40" viewBox="0 0 62 40" fill="none" xmlns="http://www.w3.org/2000/svg">
<path d="M27.3714 0V34.0473L21.363 40H6.28651L1.11266 34.8818V31.0987H8.45619V32.7677L9.51321 33.8804H18.1363L20.0278 31.9332V24.089L16.1892 27.7051H5.73018L0 21.9193V5.78581L5.73018 0H16.6342L20.5841 3.78303V0H27.3714ZM20.0278 9.62448L16.2448 6.23088H9.45758L7.34353 8.40056V19.3046L9.45758 21.4743H15.5216L20.0278 16.8567V9.62448Z" fill="#141414"/>
<path d="M20.0273 0H26.8145V4.56189L31.3208 0H38.3305L42.1136 3.83866L45.8966 0H55.5767L61.5294 6.00835V27.7051H54.1859V8.17802L52.2944 6.23088H47.6212L44.6727 9.17942V27.7051H37.5517V8.06676L35.7714 6.23088H32.4335L27.3709 11.3491V27.7051H20.0273V0Z" fill="#141414"/>
</svg>
